HIERARCHY
ROOT Hips
{
	OFFSET 0.00000 0.00000 0.00000
	CHANNELS 6 Xposition Yposition Zposition Zrotation Yrotation Xrotation 
	JOINT LHipJoint
	{
		OFFSET 0 0 0
		CHANNELS 3 Zrotation Yrotation Xrotation
		JOINT LeftUpLeg
		{
			OFFSET 1.77779 -1.88989 0.48267
			CHANNELS 3 Zrotation Yrotation Xrotation
			JOINT LeftLeg
			{
				OFFSET 2.53442 -6.96327 0.00000
				CHANNELS 3 Zrotation Yrotation Xrotation
				JOINT LeftFoot
				{
					OFFSET 2.71068 -7.44755 0.00000
					CHANNELS 3 Zrotation Yrotation Xrotation
					JOINT LeftToeBase
					{
						OFFSET 0.17992 -0.49431 2.22524
						CHANNELS 3 Zrotation Yrotation Xrotation
						End Site
						{
							OFFSET 0.00000 -0.00000 1.14687
						}
					}
				}
			}
		}
	}
	JOINT RHipJoint
	{
		OFFSET 0 0 0
		CHANNELS 3 Zrotation Yrotation Xrotation
		JOINT RightUpLeg
		{
			OFFSET -1.58469 -1.88989 0.48267
			CHANNELS 3 Zrotation Yrotation Xrotation
			JOINT RightLeg
			{
				OFFSET -2.60386 -7.15404 0.00000
				CHANNELS 3 Zrotation Yrotation Xrotation
				JOINT RightFoot
				{
					OFFSET -2.73334 -7.50979 0.00000
					CHANNELS 3 Zrotation Yrotation Xrotation
					JOINT RightToeBase
					{
						OFFSET -0.25618 -0.70384 2.21822
						CHANNELS 3 Zrotation Yrotation Xrotation
						End Site
						{
							OFFSET -0.00000 -0.00000 1.16381
						}
					}
				}
			}
		}
	}
	JOINT LowerBack
	{
		OFFSET 0 0 0
		CHANNELS 3 Zrotation Yrotation Xrotation
		JOINT Spine
		{
			OFFSET 0.03410 2.01612 -0.22230
			CHANNELS 3 Zrotation Yrotation Xrotation
			JOINT Spine1
			{
				OFFSET 0.03465 2.03012 0.00937
				CHANNELS 3 Zrotation Yrotation Xrotation
				JOINT Neck
				{
					OFFSET 0 0 0
					CHANNELS 3 Zrotation Yrotation Xrotation
					JOINT Neck1
					{
						OFFSET -0.00219 1.70459 0.20857
						CHANNELS 3 Zrotation Yrotation Xrotation
						JOINT Head
						{
							OFFSET 0.02518 1.72339 -0.22179
							CHANNELS 3 Zrotation Yrotation Xrotation
							End Site
							{
								OFFSET 0.00282 1.74122 -0.09823
							}
						}
					}
				}
				JOINT LeftShoulder
				{
					OFFSET 0 0 0
					CHANNELS 3 Zrotation Yrotation Xrotation
					JOINT LeftArm
					{
						OFFSET 3.36358 1.00547 -0.37661
						CHANNELS 3 Zrotation Yrotation Xrotation
						JOINT LeftForeArm
						{
							OFFSET 5.06507 -0.00000 0.00000
							CHANNELS 3 Zrotation Yrotation Xrotation
							JOINT LeftHand
							{
								OFFSET 3.60196 -0.00000 0.00000
								CHANNELS 3 Zrotation Yrotation Xrotation
								JOINT LeftFingerBase
								{
									OFFSET 0 0 0
									CHANNELS 3 Zrotation Yrotation Xrotation
									JOINT LeftHandIndex1
									{
										OFFSET 0.45035 -0.00000 0.00000
										CHANNELS 3 Zrotation Yrotation Xrotation
										End Site
										{
											OFFSET 0.36308 -0.00000 0.00000
										}
									}
								}
								JOINT LThumb
								{
									OFFSET 0 0 0
									CHANNELS 3 Zrotation Yrotation Xrotation
									End Site
									{
										OFFSET 0.36862 -0.00000 0.36862
									}
								}
							}
						}
					}
				}
				JOINT RightShoulder
				{
					OFFSET 0 0 0
					CHANNELS 3 Zrotation Yrotation Xrotation
					JOINT RightArm
					{
						OFFSET -3.50159 0.80383 -0.71526
						CHANNELS 3 Zrotation Yrotation Xrotation
						JOINT RightForeArm
						{
							OFFSET -5.36394 -0.00000 0.00000
							CHANNELS 3 Zrotation Yrotation Xrotation
							JOINT RightHand
							{
								OFFSET -3.58035 -0.00000 0.00000
								CHANNELS 3 Zrotation Yrotation Xrotation
								JOINT RightFingerBase
								{
									OFFSET 0 0 0
									CHANNELS 3 Zrotation Yrotation Xrotation
									JOINT RightHandIndex1
									{
										OFFSET -0.66375 -0.00000 0.00000
										CHANNELS 3 Zrotation Yrotation Xrotation
										End Site
										{
											OFFSET -0.53513 -0.00000 0.00000
										}
									}
								}
								JOINT RThumb
								{
									OFFSET 0 0 0
									CHANNELS 3 Zrotation Yrotation Xrotation
									End Site
									{
										OFFSET -0.54330 -0.00000 0.54330
									}
								}
							}
						}
					}
				}
			}
		}
	}
}
MOTION
Frames: 7
Frame Time: .0083333
0.6793 17.9725 -22.2667 0 0 0 0 0 0 -21 0 0 0 0 0 0 0 0 0 0 0 0 0 0 21 0 0 0 0 0 0 0 0 0 0 0 0 0 0 0 0 0 0 0 0 0 0 -16 0 0 21 0 0 11 0 0 0 -8 0 0 0 0 0 0 0 0 0 0 0 0 0 0 0 0 0 0 0 0 8 0 0 0 0 0 0 0 0 0 0 0 0 0 0 0 0 0
0.6793 17.9725 -22.2667 0.6654 -2.2363 -4.0341 0.0000 0.0000 0.0000 -25.0115 -5.4966 -7.6251 2.2878 9.4415 27.1865 0.0000 0.0000 0.0000 0.0000 0.0000 0.0000 0.0000 0.0000 0.0000 21.2237 8.3402 -22.0059 -14.4849 -19.2545 73.6799 0.0052 -3.5227 -4.7747 -0.1198 -2.2316 6.1461 -1.8426 0.4896 12.0625 0.4216 0.4250 0.7313 1.4112 0.2634 -6.0188 -1.8908 -2.8529 -16.1413 -0.3134 -3.4106 21.8626 -0.2347 -1.7806 9.6097 -0.0000 -0.0000 0.0000 -86.3752 1.4677 12.9669 10.4956 -17.5110 -1.6209 -0.0000 0.0000 -4.9500 26.0017 19.4780 9.2379 -7.1250 0.0000 -0.0000 -2.3585 51.4453 -0.3746 -0.0000 -0.0000 0.0000 90.6223 3.5979 3.7890 -11.8434 19.5694 -2.0495 0.0000 0.0000 8.1380 -14.6475 12.7185 -3.2933 7.1250 -0.0000 -0.0000 8.7372 -16.9436 5.8810
0.6805 17.9485 -22.1029 0.8449 -1.9200 -4.0544 0.0000 0.0000 0.0000 -25.3193 -5.5609 -7.0346 2.2710 9.4092 27.0839 0.4400 -2.8582 -11.8737 0.0135 0.7512 2.0645 0.0000 0.0000 0.0000 20.8170 8.4263 -23.0647 -14.2682 -19.1934 73.0220 -0.0417 -2.7236 -5.8093 -0.0673 -1.6741 4.6059 -2.0923 0.3088 12.1945 0.4925 0.1515 0.5582 1.6741 0.1414 -6.2664 -2.0009 -2.7514 -15.7144 -0.2987 -3.2539 21.8097 -0.1840 -1.7170 9.5127 -0.0000 -0.0000 0.0000 -86.4050 1.5074 13.2922 10.7755 -17.9434 -1.7061 -0.0000 0.0000 -5.0811 25.6338 19.5558 9.1247 -7.1250 0.0000 -0.0000 -2.7483 51.4636 -0.4378 -0.0000 -0.0000 0.0000 90.5493 2.9122 3.6314 -11.7973 19.5000 -2.0341 0.0000 0.0000 8.0554 -16.1543 14.3140 -4.0962 7.1250 -0.0000 -0.0000 7.7083 -15.1946 5.4689
0.6805 17.9430 -21.9353 0.8974 -1.7178 -4.1008 0.0000 0.0000 0.0000 -25.4813 -5.5265 -6.3796 2.2434 9.3557 26.9144 0.4289 -2.4554 -11.7685 0.0012 -0.2218 -0.6095 0.0000 0.0000 0.0000 20.6101 8.6264 -23.8312 -13.9095 -19.0864 71.9279 -0.0843 -2.2214 -6.7731 -0.0341 -1.1916 3.2762 -2.1666 0.1913 12.1533 0.5735 -0.0084 0.5881 1.8291 0.0654 -6.2045 -2.0948 -2.6747 -15.6878 -0.2791 -3.1275 21.7556 -0.1446 -1.6638 9.4899 0.0000 0.0000 0.0000 -86.4007 1.1272 13.5358 11.0046 -18.2953 -1.7774 -0.0000 0.0000 -5.1222 25.3961 19.9730 9.2111 -7.1250 0.0000 -0.0000 -3.0909 51.8695 -0.5232 0.0000 0.0000 0.0000 90.4824 2.5608 3.5920 -11.7631 19.4485 -2.0227 0.0000 0.0000 7.6797 -18.1588 18.7896 -6.0305 7.1250 -0.0000 -0.0000 6.5147 -10.3795 5.2694
0.6797 17.9446 -21.7679 0.8868 -1.7081 -4.2360 0.0000 0.0000 0.0000 -25.5834 -5.2792 -5.5955 2.2336 9.3367 26.8543 0.4594 -2.4442 -12.1950 0.0023 0.3107 0.8538 0.0000 0.0000 0.0000 20.5187 8.9967 -24.3950 -13.5208 -18.9622 70.7355 -0.1216 -1.8824 -7.5611 -0.0414 -1.3134 3.6116 -2.1713 0.1627 12.2262 0.6326 -0.0445 0.6443 1.9004 0.0479 -6.1840 -2.0289 -2.6851 -15.6944 -0.4073 -3.1283 21.7852 -0.2002 -1.6734 9.4981 0.0000 0.0000 0.0000 -86.3131 0.6830 13.8687 11.2200 -18.6248 -1.8456 -0.0000 0.0000 -5.1364 25.3522 20.9241 9.6042 -7.1250 0.0000 -0.0000 -3.3846 52.8812 -0.6569 0.0000 0.0000 0.0000 90.4506 2.3521 3.2257 -11.5995 19.2013 -1.9686 0.0000 0.0000 7.6891 -18.2885 21.4214 -6.8826 7.1250 -0.0000 -0.0000 6.5851 -7.6515 5.6884
0.6778 17.9309 -21.6090 0.9486 -1.5940 -4.2975 0.0000 0.0000 0.0000 -25.7328 -4.9521 -4.9208 2.2234 9.3166 26.7908 0.5822 -2.7079 -13.7428 0.0099 0.6438 1.7692 0.0000 0.0000 0.0000 20.3115 9.2968 -25.1005 -13.0925 -18.8153 69.4127 -0.1496 -1.7043 -8.1390 -0.0395 -1.2827 3.5269 -2.1866 0.1452 12.4024 0.6104 -0.0749 0.6549 1.8918 0.0341 -6.2699 -1.8986 -2.7630 -15.7860 -0.5164 -3.2433 21.8970 -0.2768 -1.7284 9.5508 0.0000 0.0000 0.0000 -86.0835 0.2375 14.3417 11.4513 -18.9766 -1.9201 -0.0000 0.0000 -5.1217 25.3568 21.7813 9.9736 -7.1250 0.0000 -0.0000 -3.6220 53.7985 -0.7843 0.0000 0.0000 0.0000 90.5210 2.0909 2.9486 -11.4900 19.0354 -1.9327 0.0000 0.0000 7.4398 -18.1850 21.1574 -6.7616 7.1250 -0.0000 -0.0000 6.6337 -7.9373 5.6934
0.6725 17.9115 -21.4540 1.0004 -1.2052 -4.2572 0.0000 0.0000 0.0000 -25.8607 -4.9243 -4.4271 2.2218 9.3135 26.7809 0.5689 -2.5713 -13.5993 0.0031 -0.3610 -0.9919 0.0000 0.0000 0.0000 20.0523 9.4053 -25.9230 -12.6183 -18.6400 67.9356 -0.1816 -1.6095 -8.8079 -0.0381 -1.2596 3.4635 -2.3212 0.0023 12.3653 0.6858 -0.2773 0.7106 2.0824 -0.0619 -6.1793 -1.9596 -2.7646 -15.6549 -0.6225 -3.2065 21.7918 -0.2954 -1.7285 9.4886 0.0000 0.0000 0.0000 -86.0235 -0.3406 14.7239 11.6236 -19.2378 -1.9765 -0.0000 0.0000 -5.3993 25.0470 20.1804 9.1579 -7.1250 0.0000 -0.0000 -3.4981 52.0286 -0.6060 0.0000 0.0000 0.0000 90.4683 1.8958 2.9224 -11.4342 18.9507 -1.9146 0.0000 0.0000 7.1196 -18.3919 20.9280 -6.7731 7.1250 -0.0000 -0.0000 6.4872 -8.1449 5.5393
